<?xml version="1.0" standalone="no"?>
<!DOCTYPE svg PUBLIC "-//W3C//DTD SVG 20010904//EN" "http://www.w3.org/TR/2001/REC-SVG-20010904/DTD/svg10.dtd">
<!-- Created using Krita: https://krita.org -->
<svg xmlns="http://www.w3.org/2000/svg" 
    xmlns:xlink="http://www.w3.org/1999/xlink"
    xmlns:krita="http://krita.org/namespaces/svg/krita"
    xmlns:sodipodi="http://sodipodi.sourceforge.net/DTD/sodipodi-0.dtd"
    width="72pt"
    height="72pt"
    viewBox="0 0 72 72">
<defs/>
<path id="shape2" transform="matrix(0.0568125 0 0 0.0568125 9.975775 12.5156245104459)" opacity="0.59" fill="#7f00ff" stroke-opacity="0" stroke="#000000" stroke-width="0" stroke-linecap="square" stroke-linejoin="bevel" d="M55.0954 581.147L204.64 594.798C212.511 595.449 217.43 599.998 219.398 608.449L223.333 673.78L353.201 683.53L361.072 624.051C362.383 616.9 367.303 612.025 375.83 609.424L535.213 609.424C543.74 612.025 548.659 616.9 549.971 624.051L557.841 683.53L687.709 673.78L691.645 608.449C693.612 599.998 698.531 595.449 706.402 594.798L855.947 581.147L855.947 341.278C875.624 315.926 893.989 289.598 911.042 262.296C888.086 223.943 860.866 188.841 829.383 156.988C801.179 169.988 774.288 185.265 748.708 202.816C722.471 178.764 693.612 157.963 662.129 140.411C666.721 107.259 669.344 74.106 670 40.9533C631.302 22.7518 590.964 9.10073 548.987 1.24711e-13C531.934 27.9523 516.847 56.8796 503.73 86.782C471.59 82.2316 439.452 82.2316 407.313 86.782C394.195 56.8796 379.109 27.9523 362.056 0C320.078 9.10073 279.74 22.7518 241.043 40.9533C241.699 74.106 244.322 107.259 248.913 140.411C217.43 157.963 188.571 178.764 162.335 202.816C136.755 185.265 109.863 169.988 81.6593 156.988C50.1762 188.841 22.9564 223.943 0 262.296C17.0533 289.598 35.4185 315.926 55.0954 341.278ZM55.0954 613.325L55.0954 651.353C55.0954 920.475 854.963 920.475 855.947 651.353L855.947 613.325L724.111 625.026L719.192 692.306C717.881 698.807 713.289 703.032 705.418 704.982L546.035 715.708C538.164 715.708 532.918 712.132 530.294 704.982L520.455 641.602L390.587 641.602L380.749 704.982C378.125 712.132 372.878 715.708 365.007 715.708L205.624 704.982C197.753 703.032 193.162 698.807 191.85 692.306L186.931 625.026Z" sodipodi:nodetypes="cccccccccccccccccccccccccccccccccccccccccccccccc"/><rect id="shape0" transform="matrix(0.5625 0 0 0.5625 1.125 1.125)" fill="#363d52" stroke="#212532" stroke-width="4" stroke-linecap="butt" stroke-linejoin="miter" stroke-miterlimit="2" width="124" height="124" rx="14" ry="14"/><path id="shape1" transform="matrix(0.0568125 0 0 0.0568125 12.8964375 45.1659375)" fill="#ffffff" stroke-opacity="0" stroke="#000000" stroke-width="0" stroke-linecap="square" stroke-linejoin="bevel" d="M0 0L0 33C271.333 269 542.667 269 814 33L814 0Z" sodipodi:nodetypes="ccccc"/><path id="shape21" transform="matrix(0.0568125 0 0 0.0568125 12.8529916615095 16.9278510725389)" fill="#7f00ff" stroke-opacity="0" stroke="#000000" stroke-width="0" stroke-linecap="square" stroke-linejoin="bevel" d="M0.764723 497.04L152.765 511.04C160.765 511.707 165.765 516.373 167.765 525.04L171.765 592.04L303.765 602.04L311.765 541.04C313.098 533.707 318.098 528.707 326.765 526.04L488.765 526.04C497.432 528.707 502.432 533.707 503.765 541.04L511.765 602.04L643.765 592.04L647.765 525.04C649.765 516.373 654.765 511.707 662.765 511.04L814.765 497.04C815.759 339.379 815.759 257.379 814.765 251.04C813.274 241.532 775.771 177.873 714.119 116.156C681.658 83.6614 670.582 77.4664 631.069 58.3445C558.081 23.0219 489.347 11.3367 455.527 4.89151C411.065 -3.58196 375.981 0.809238 356.908 4.2727C277.324 18.7249 206.44 50.9464 175.487 67.3173C158.662 76.2159 128.739 90.8233 96.7697 122.035C60.0539 157.88 2.29417 250.894 0.764723 251.04C-0.254908 251.137 -0.254908 333.137 0.764723 497.04ZM0.764723 530.04L0.764723 569.04C0.764723 845.04 813.765 845.04 814.765 569.04L814.765 530.04L680.765 542.04L675.765 611.04C674.432 617.707 669.765 622.04 661.765 624.04L499.765 635.04C491.765 635.04 486.432 631.373 483.765 624.04L473.765 559.04L341.765 559.04L331.765 624.04C329.098 631.373 323.765 635.04 315.765 635.04L153.765 624.04C145.765 622.04 141.098 617.707 139.765 611.04L134.765 542.04Z" sodipodi:nodetypes="cccccccccccccczsssssszcccccccccccccccccc"/><path id="shape3" transform="matrix(0.0568125 0 0 0.0568125 34.3715625 34.68403125)" fill="#ffffff" stroke-opacity="0" stroke="#000000" stroke-width="0" stroke-linecap="square" stroke-linejoin="bevel" d="M0 111.5C0 145.5 58 145.5 58 111.5L58 25.5C58 -8.5 0 -8.5 0 25.5Z" sodipodi:nodetypes="ccccc"/><circle id="shape4" transform="matrix(0.0568125 0 0 0.0568125 43.0070625 31.701375)" r="90" cx="90" cy="90" fill="#ffffff" stroke-opacity="0" stroke="#000000" stroke-width="0" stroke-linecap="square" stroke-linejoin="bevel"/><circle id="shape5" transform="matrix(0.0568125 0 0 0.0568125 18.8049375 31.701375)" r="90" cx="90" cy="90" fill="#ffffff" stroke-opacity="0" stroke="#000000" stroke-width="0" stroke-linecap="square" stroke-linejoin="bevel"/><g id="group0" transform="matrix(0.0568125 0 0 0.0568125 6.931125 6.931125)" fill="none">
  <circle id="shape6" transform="translate(247, 472)" r="60" cx="60" cy="60" fill="#414042" stroke-opacity="0" stroke="#000000" stroke-width="0" stroke-linecap="square" stroke-linejoin="bevel"/>
  <circle id="shape7" transform="translate(657.000000000001, 472)" r="60" cx="60" cy="60" fill="#414042" stroke-opacity="0" stroke="#000000" stroke-width="0" stroke-linecap="square" stroke-linejoin="bevel"/>
 </g>
</svg>
