<?xml version="1.0" standalone="no"?>
<!DOCTYPE svg PUBLIC "-//W3C//DTD SVG 20010904//EN" "http://www.w3.org/TR/2001/REC-SVG-20010904/DTD/svg10.dtd">
<!-- Created using Krita: https://krita.org -->
<svg xmlns="http://www.w3.org/2000/svg" 
    xmlns:xlink="http://www.w3.org/1999/xlink"
    xmlns:krita="http://krita.org/namespaces/svg/krita"
    xmlns:sodipodi="http://sodipodi.sourceforge.net/DTD/sodipodi-0.dtd"
    width="72pt"
    height="72pt"
    viewBox="0 0 72 72">
<defs/>
<path id="shape2" transform="matrix(0.0568125 0 0 0.0568125 12.8529916615095 12.7309257888239)" fill="#7f00ff" stroke-opacity="0" stroke="#000000" stroke-width="0" stroke-linecap="square" stroke-linejoin="bevel" d="M0.764723 570.913L152.765 584.913C160.765 585.58 165.765 590.246 167.765 598.913L171.765 665.913L303.765 675.913L311.765 614.913C313.098 607.58 318.098 602.58 326.765 599.913L488.765 599.913C497.432 602.58 502.432 607.58 503.765 614.913L511.765 675.913L643.765 665.913L647.765 598.913C649.765 590.246 654.765 585.58 662.765 584.913L814.765 570.913C815.759 413.252 815.759 331.252 814.765 324.913C813.274 315.405 775.771 251.746 714.119 190.03C681.658 157.535 670.582 151.34 631.069 132.218C558.081 96.8952 646.061 132.859 520.348 83.7153C484.473 -2.28279 524.783 97.984 484.6 5.00696C420.499 1.97054 412.585 -0.692746 349.434 0.16186C304.857 88.1793 339.901 -3.22287 308.641 81.5494C227.2 112.71 206.44 124.82 175.487 141.191C158.662 150.089 128.739 164.697 96.7697 195.908C60.0539 231.754 2.29417 324.767 0.764723 324.913C-0.254908 325.011 -0.254908 407.011 0.764723 570.913ZM0.764723 603.913L0.764723 642.913C0.764723 918.913 813.765 918.913 814.765 642.913L814.765 603.913L680.765 615.913L675.765 684.913C674.432 691.58 669.765 695.913 661.765 697.913L499.765 708.913C491.765 708.913 486.432 705.246 483.765 697.913L473.765 632.913L341.765 632.913L331.765 697.913C329.098 705.246 323.765 708.913 315.765 708.913L153.765 697.913C145.765 695.913 141.098 691.58 139.765 684.913L134.765 615.913Z" sodipodi:nodetypes="cccccccccccccczssccccsszcccccccccccccccccc"/><path id="shape21" transform="matrix(0.0568125 0 0 0.0568125 9.6958125 11.14453125)" fill="#7f00ff" stroke-opacity="0" stroke="#000000" stroke-width="0" stroke-linecap="square" stroke-linejoin="bevel" d="M56 596L208 610C216 610.667 221 615.333 223 624L227 691L359 701L367 640C368.333 632.667 373.333 627.667 382 625L544 625C552.667 627.667 557.667 632.667 559 640L567 701L699 691L703 624C705 615.333 710 610.667 718 610L870 596L870 350C890 324 908.667 297 926 269C902.667 229.667 875 193.667 843 161C814.333 174.333 787 190 761 208C734.333 183.333 705 162 673 144C677.667 110 680.333 76 681 42C641.667 23.3333 600.667 9.33333 558 1.27898e-13C540.667 28.6667 525.333 58.3333 512 89C479.333 84.3333 446.667 84.3333 414 89C400.667 58.3333 385.333 28.6667 368 0C325.333 9.33333 284.333 23.3333 245 42C245.667 76 248.333 110 253 144C221 162 191.667 183.333 165 208C139 190 111.667 174.333 83 161C51 193.667 23.3333 229.667 0 269C17.3333 297 36 324 56 350ZM56 629L56 668C56 944 869 944 870 668L870 629L736 641L731 710C729.667 716.667 725 721 717 723L555 734C547 734 541.667 730.333 539 723L529 658L397 658L387 723C384.333 730.333 379 734 371 734L209 723C201 721 196.333 716.667 195 710L190 641Z" sodipodi:nodetypes="cccccccccccccccccccccccccccccccccccccccccccccccc"/><rect id="shape0" transform="matrix(0.5625 0 0 0.5625 1.125 1.125)" fill="#363d52" stroke="#212532" stroke-width="4" stroke-linecap="butt" stroke-linejoin="miter" stroke-miterlimit="2" width="124" height="124" rx="14" ry="14"/><path id="shape1" transform="matrix(0.0568125 0 0 0.0568125 12.8964375 45.1659375)" fill="#ffffff" stroke-opacity="0" stroke="#000000" stroke-width="0" stroke-linecap="square" stroke-linejoin="bevel" d="M0 0L0 33C271.333 269 542.667 269 814 33L814 0Z" sodipodi:nodetypes="ccccc"/><path id="shape22" transform="matrix(0.0568125 0 0 0.0568125 13.14138240656 11.7639528802229)" fill="#7f00ff" stroke-opacity="0" stroke="#000000" stroke-width="0" stroke-linecap="square" stroke-linejoin="bevel" d="M1.92613 581.147L151.471 594.798C159.342 595.449 164.261 599.998 166.229 608.449L170.164 673.78L300.032 683.53L307.903 624.051C309.214 616.9 314.133 612.025 322.66 609.424L482.044 609.424C490.571 612.025 495.49 616.9 496.801 624.051L504.672 683.53L634.54 673.78L638.475 608.449C640.443 599.998 645.362 595.449 653.233 594.798L802.778 581.147C803.696 443.2 803.696 363.244 802.778 341.278C801.401 308.328 776.074 260.834 734.523 224.475C713.556 206.127 640.443 157.963 608.96 140.411C613.551 107.259 616.174 74.106 616.831 40.9533C578.133 22.7518 537.795 9.10073 495.817 1.24711e-13C478.764 27.9523 463.678 56.8796 450.56 86.782C418.421 82.2316 386.283 82.2316 354.143 86.782C341.026 56.8796 325.939 27.9523 308.886 0C266.909 9.10073 226.571 22.7518 187.873 40.9533C188.529 74.106 191.152 107.259 195.744 140.411C164.261 157.963 107.452 186.02 70.7991 227.569C11.2672 295.053 5.7784 320.705 1.92613 341.278C-0.642044 354.993 -0.642044 434.949 1.92613 581.147ZM1.92613 613.325L1.92613 651.353C1.92613 920.475 801.794 920.475 802.778 651.353L802.778 613.325L670.942 625.026L666.023 692.306C664.711 698.807 660.12 703.032 652.249 704.982L492.866 715.708C484.995 715.708 479.748 712.132 477.124 704.982L467.286 641.602L337.418 641.602L327.58 704.982C324.956 712.132 319.709 715.708 311.838 715.708L152.455 704.982C144.584 703.032 139.992 698.807 138.681 692.306L133.762 625.026Z" sodipodi:nodetypes="cccccccccccccczsccccccccszcccccccccccccccccc"/><path id="shape3" transform="matrix(0.0568125 0 0 0.0568125 34.3715625 34.68403125)" fill="#ffffff" stroke-opacity="0" stroke="#000000" stroke-width="0" stroke-linecap="square" stroke-linejoin="bevel" d="M0 111.5C0 145.5 58 145.5 58 111.5L58 25.5C58 -8.5 0 -8.5 0 25.5Z" sodipodi:nodetypes="ccccc"/><circle id="shape4" transform="matrix(0.0568125 0 0 0.0568125 43.0070625 31.701375)" r="90" cx="90" cy="90" fill="#ffffff" stroke-opacity="0" stroke="#000000" stroke-width="0" stroke-linecap="square" stroke-linejoin="bevel"/><circle id="shape5" transform="matrix(0.0568125 0 0 0.0568125 18.8049375 31.701375)" r="90" cx="90" cy="90" fill="#ffffff" stroke-opacity="0" stroke="#000000" stroke-width="0" stroke-linecap="square" stroke-linejoin="bevel"/><g id="group0" transform="matrix(0.0568125 0 0 0.0568125 6.931125 6.931125)" fill="none">
  <circle id="shape6" transform="translate(247, 472)" r="60" cx="60" cy="60" fill="#414042" stroke-opacity="0" stroke="#000000" stroke-width="0" stroke-linecap="square" stroke-linejoin="bevel"/>
  <circle id="shape7" transform="translate(657.000000000001, 472)" r="60" cx="60" cy="60" fill="#414042" stroke-opacity="0" stroke="#000000" stroke-width="0" stroke-linecap="square" stroke-linejoin="bevel"/>
 </g>
</svg>
