<?xml version="1.0" standalone="no"?>
<!DOCTYPE svg PUBLIC "-//W3C//DTD SVG 20010904//EN" "http://www.w3.org/TR/2001/REC-SVG-20010904/DTD/svg10.dtd">
<!-- Created using Krita: https://krita.org -->
<svg xmlns="http://www.w3.org/2000/svg" 
    xmlns:xlink="http://www.w3.org/1999/xlink"
    xmlns:krita="http://krita.org/namespaces/svg/krita"
    xmlns:sodipodi="http://sodipodi.sourceforge.net/DTD/sodipodi-0.dtd"
    width="72pt"
    height="72pt"
    viewBox="0 0 72 72">
<defs/>
<path id="shape2" transform="matrix(0.0568125 0 0 0.0568125 12.8529916615095 12.7309257888239)" fill="#7f00ff" stroke-opacity="0" stroke="#000000" stroke-width="0" stroke-linecap="square" stroke-linejoin="bevel" d="M0.764723 570.913L152.765 584.913C160.765 585.58 165.765 590.246 167.765 598.913L171.765 665.913L303.765 675.913L311.765 614.913C313.098 607.58 318.098 602.58 326.765 599.913L488.765 599.913C497.432 602.58 502.432 607.58 503.765 614.913L511.765 675.913L643.765 665.913L647.765 598.913C649.765 590.246 654.765 585.58 662.765 584.913L814.765 570.913C815.759 413.252 815.759 331.252 814.765 324.913C813.274 315.405 775.771 251.746 714.119 190.03C681.658 157.535 670.582 151.34 631.069 132.218C558.081 96.8952 646.061 132.859 520.348 83.7153C484.473 -2.28279 524.783 97.984 484.6 5.00696C420.499 1.97054 412.585 -0.692746 349.434 0.16186C304.857 88.1793 339.901 -3.22287 308.641 81.5494C227.2 112.71 206.44 124.82 175.487 141.191C158.662 150.089 128.739 164.697 96.7697 195.908C60.0539 231.754 2.29417 324.767 0.764723 324.913C-0.254908 325.011 -0.254908 407.011 0.764723 570.913ZM0.764723 603.913L0.764723 642.913C0.764723 918.913 813.765 918.913 814.765 642.913L814.765 603.913L680.765 615.913L675.765 684.913C674.432 691.58 669.765 695.913 661.765 697.913L499.765 708.913C491.765 708.913 486.432 705.246 483.765 697.913L473.765 632.913L341.765 632.913L331.765 697.913C329.098 705.246 323.765 708.913 315.765 708.913L153.765 697.913C145.765 695.913 141.098 691.58 139.765 684.913L134.765 615.913Z" sodipodi:nodetypes="cccccccccccccczssccccsszcccccccccccccccccc"/><path id="shape21" transform="matrix(0.0568125 0 0 0.0568125 9.6958125 11.14453125)" fill="#7f00ff" stroke-opacity="0" stroke="#000000" stroke-width="0" stroke-linecap="square" stroke-linejoin="bevel" d="M56 596L208 610C216 610.667 221 615.333 223 624L227 691L359 701L367 640C368.333 632.667 373.333 627.667 382 625L544 625C552.667 627.667 557.667 632.667 559 640L567 701L699 691L703 624C705 615.333 710 610.667 718 610L870 596L870 350C890 324 908.667 297 926 269C902.667 229.667 875 193.667 843 161C814.333 174.333 787 190 761 208C734.333 183.333 705 162 673 144C677.667 110 680.333 76 681 42C641.667 23.3333 600.667 9.33333 558 1.27898e-13C540.667 28.6667 525.333 58.3333 512 89C479.333 84.3333 446.667 84.3333 414 89C400.667 58.3333 385.333 28.6667 368 0C325.333 9.33333 284.333 23.3333 245 42C245.667 76 248.333 110 253 144C221 162 191.667 183.333 165 208C139 190 111.667 174.333 83 161C51 193.667 23.3333 229.667 0 269C17.3333 297 36 324 56 350ZM56 629L56 668C56 944 869 944 870 668L870 629L736 641L731 710C729.667 716.667 725 721 717 723L555 734C547 734 541.667 730.333 539 723L529 658L397 658L387 723C384.333 730.333 379 734 371 734L209 723C201 721 196.333 716.667 195 710L190 641Z" sodipodi:nodetypes="cccccccccccccccccccccccccccccccccccccccccccccccc"/><rect id="shape0" transform="matrix(0.5625 0 0 0.5625 1.125 1.125)" fill="#363d52" stroke="#212532" stroke-width="4" stroke-linecap="butt" stroke-linejoin="miter" stroke-miterlimit="2" width="124" height="124" rx="14" ry="14"/><path id="shape1" transform="matrix(0.0568125 0 0 0.0568125 12.8964375 45.1659375)" fill="#ffffff" stroke-opacity="0" stroke="#000000" stroke-width="0" stroke-linecap="square" stroke-linejoin="bevel" d="M0 0L0 33C271.333 269 542.667 269 814 33L814 0Z" sodipodi:nodetypes="ccccc"/><path id="shape22" transform="matrix(0.0568125 0 0 0.0568125 13.14138240656 11.7806823437822)" fill="#7f00ff" stroke-opacity="0" stroke="#000000" stroke-width="0" stroke-linecap="square" stroke-linejoin="bevel" d="M1.92613 580.853L151.471 594.504C159.342 595.154 164.261 599.704 166.229 608.155L170.164 673.485L300.032 683.236L307.903 623.756C309.214 616.606 314.133 611.73 322.66 609.13L482.044 609.13C490.571 611.73 495.49 616.606 496.801 623.756L504.672 683.236L634.54 673.485L638.475 608.155C640.443 599.704 645.362 595.154 653.233 594.504L802.778 580.853C803.696 442.906 803.696 362.949 802.778 340.983C801.401 308.034 737.596 246.777 719.108 227.369C741.146 152.462 751.814 114.978 751.113 114.916L633.194 43.6412C634.457 44.8447 610.089 69.4404 560.09 117.428C556.271 116.887 529.693 105.505 480.356 83.2818C470.643 41.8432 464.429 15.1124 461.712 3.0892L352.228 0C337.274 43.5293 327.837 71.748 323.917 84.656C237.961 111.942 259.434 108.09 237.188 111.24C216.892 91.3051 192.111 71.2474 162.847 51.0669L73.393 114.916C73.929 114.565 79.8529 149.781 91.1648 220.562C52.256 262.866 5.7784 320.41 1.92613 340.983C-0.642044 354.699 -0.642044 434.655 1.92613 580.853ZM1.92613 613.03L1.92613 651.058C1.92613 920.18 801.794 920.18 802.778 651.058L802.778 613.03L670.942 624.731L666.023 692.012C664.711 698.513 660.12 702.738 652.249 704.688L492.866 715.414C484.995 715.414 479.748 711.838 477.124 704.688L467.286 641.308L337.418 641.308L327.58 704.688C324.956 711.838 319.709 715.414 311.838 715.414L152.455 704.688C144.584 702.738 139.992 698.513 138.681 692.012L133.762 624.731Z" sodipodi:nodetypes="cccccccccccccczcccccccccccczcccccccccccccccccc"/><path id="shape3" transform="matrix(0.0568125 0 0 0.0568125 34.3715625 34.68403125)" fill="#ffffff" stroke-opacity="0" stroke="#000000" stroke-width="0" stroke-linecap="square" stroke-linejoin="bevel" d="M0 111.5C0 145.5 58 145.5 58 111.5L58 25.5C58 -8.5 0 -8.5 0 25.5Z" sodipodi:nodetypes="ccccc"/><circle id="shape4" transform="matrix(0.0568125 0 0 0.0568125 43.0070625 31.701375)" r="90" cx="90" cy="90" fill="#ffffff" stroke-opacity="0" stroke="#000000" stroke-width="0" stroke-linecap="square" stroke-linejoin="bevel"/><circle id="shape5" transform="matrix(0.0568125 0 0 0.0568125 18.8049375 31.701375)" r="90" cx="90" cy="90" fill="#ffffff" stroke-opacity="0" stroke="#000000" stroke-width="0" stroke-linecap="square" stroke-linejoin="bevel"/><g id="group0" transform="matrix(0.0568125 0 0 0.0568125 6.931125 6.931125)" fill="none">
  <circle id="shape6" transform="translate(247, 472)" r="60" cx="60" cy="60" fill="#414042" stroke-opacity="0" stroke="#000000" stroke-width="0" stroke-linecap="square" stroke-linejoin="bevel"/>
  <circle id="shape7" transform="translate(657.000000000001, 472)" r="60" cx="60" cy="60" fill="#414042" stroke-opacity="0" stroke="#000000" stroke-width="0" stroke-linecap="square" stroke-linejoin="bevel"/>
 </g>
</svg>
