<?xml version="1.0" standalone="no"?>
<!DOCTYPE svg PUBLIC "-//W3C//DTD SVG 20010904//EN" "http://www.w3.org/TR/2001/REC-SVG-20010904/DTD/svg10.dtd">
<!-- Created using Krita: https://krita.org -->
<svg xmlns="http://www.w3.org/2000/svg" 
    xmlns:xlink="http://www.w3.org/1999/xlink"
    xmlns:krita="http://krita.org/namespaces/svg/krita"
    xmlns:sodipodi="http://sodipodi.sourceforge.net/DTD/sodipodi-0.dtd"
    width="72pt"
    height="72pt"
    viewBox="0 0 72 72">
<defs/>
<path id="shape2" transform="matrix(0.0568125 0 0 0.0568125 10.1207012073834 11.7639528802229)" opacity="0.59" fill="#7f00ff" stroke-opacity="0" stroke="#000000" stroke-width="0" stroke-linecap="square" stroke-linejoin="bevel" d="M55.0954 581.147L204.64 594.798C212.511 595.449 217.43 599.998 219.398 608.449L223.333 673.78L353.201 683.53L361.072 624.051C362.383 616.9 367.303 612.025 375.83 609.424L535.213 609.424C543.74 612.025 548.659 616.9 549.971 624.051L557.841 683.53L687.709 673.78L691.645 608.449C693.612 599.998 698.531 595.449 706.402 594.798L855.947 581.147L855.947 341.278C875.624 315.926 893.989 289.598 911.042 262.296C888.086 223.943 860.866 188.841 829.383 156.988C801.179 169.988 774.288 185.265 748.708 202.816C722.471 178.764 693.612 157.963 662.129 140.411C666.721 107.259 669.344 74.106 670 40.9533C631.302 22.7518 590.964 9.10073 548.987 1.24711e-13C531.934 27.9523 516.847 56.8796 503.73 86.782C471.59 82.2316 439.452 82.2316 407.313 86.782C394.195 56.8796 379.109 27.9523 362.056 0C320.078 9.10073 279.74 22.7518 241.043 40.9533C241.699 74.106 244.322 107.259 248.913 140.411C217.43 157.963 188.571 178.764 162.335 202.816C136.755 185.265 109.863 169.988 81.6593 156.988C50.1762 188.841 22.9564 223.943 0 262.296C17.0533 289.598 35.4185 315.926 55.0954 341.278ZM55.0954 613.325L55.0954 651.353C55.0954 920.475 854.963 920.475 855.947 651.353L855.947 613.325L724.111 625.026L719.192 692.306C717.881 698.807 713.289 703.032 705.418 704.982L546.035 715.708C538.164 715.708 532.918 712.132 530.294 704.982L520.455 641.602L390.587 641.602L380.749 704.982C378.125 712.132 372.878 715.708 365.007 715.708L205.624 704.982C197.753 703.032 193.162 698.807 191.85 692.306L186.931 625.026Z" sodipodi:nodetypes="cccccccccccccccccccccccccccccccccccccccccccccccc"/><rect id="shape0" transform="matrix(0.5625 0 0 0.5625 1.125 1.125)" fill="#363d52" stroke="#212532" stroke-width="4" stroke-linecap="butt" stroke-linejoin="miter" stroke-miterlimit="2" width="124" height="124" rx="14" ry="14"/><path id="shape1" transform="matrix(0.0568125 0 0 0.0568125 12.8964375 45.1659375)" fill="#ffffff" stroke-opacity="0" stroke="#000000" stroke-width="0" stroke-linecap="square" stroke-linejoin="bevel" d="M0 0L0 33C271.333 269 542.667 269 814 33L814 0Z" sodipodi:nodetypes="ccccc"/><path id="shape21" transform="matrix(0.0568125 0 0 0.0568125 12.8529916615095 12.7309257888239)" fill="#7f00ff" stroke-opacity="0" stroke="#000000" stroke-width="0" stroke-linecap="square" stroke-linejoin="bevel" d="M0.764723 570.913L152.765 584.913C160.765 585.58 165.765 590.246 167.765 598.913L171.765 665.913L303.765 675.913L311.765 614.913C313.098 607.58 318.098 602.58 326.765 599.913L488.765 599.913C497.432 602.58 502.432 607.58 503.765 614.913L511.765 675.913L643.765 665.913L647.765 598.913C649.765 590.246 654.765 585.58 662.765 584.913L814.765 570.913C815.759 413.252 815.759 331.252 814.765 324.913C813.274 315.405 775.771 251.746 714.119 190.03C681.658 157.535 670.582 151.34 631.069 132.218C558.081 96.8952 646.061 132.859 520.348 83.7153C484.473 -2.28279 524.783 97.984 484.6 5.00696C420.499 1.97054 412.585 -0.692746 349.434 0.16186C304.857 88.1793 339.901 -3.22287 308.641 81.5494C227.2 112.71 206.44 124.82 175.487 141.191C158.662 150.089 128.739 164.697 96.7697 195.908C60.0539 231.754 2.29417 324.767 0.764723 324.913C-0.254908 325.011 -0.254908 407.011 0.764723 570.913ZM0.764723 603.913L0.764723 642.913C0.764723 918.913 813.765 918.913 814.765 642.913L814.765 603.913L680.765 615.913L675.765 684.913C674.432 691.58 669.765 695.913 661.765 697.913L499.765 708.913C491.765 708.913 486.432 705.246 483.765 697.913L473.765 632.913L341.765 632.913L331.765 697.913C329.098 705.246 323.765 708.913 315.765 708.913L153.765 697.913C145.765 695.913 141.098 691.58 139.765 684.913L134.765 615.913Z" sodipodi:nodetypes="cccccccccccccczssccccsszcccccccccccccccccc"/><path id="shape3" transform="matrix(0.0568125 0 0 0.0568125 34.3715625 34.68403125)" fill="#ffffff" stroke-opacity="0" stroke="#000000" stroke-width="0" stroke-linecap="square" stroke-linejoin="bevel" d="M0 111.5C0 145.5 58 145.5 58 111.5L58 25.5C58 -8.5 0 -8.5 0 25.5Z" sodipodi:nodetypes="ccccc"/><circle id="shape4" transform="matrix(0.0568125 0 0 0.0568125 43.0070625 31.701375)" r="90" cx="90" cy="90" fill="#ffffff" stroke-opacity="0" stroke="#000000" stroke-width="0" stroke-linecap="square" stroke-linejoin="bevel"/><circle id="shape5" transform="matrix(0.0568125 0 0 0.0568125 18.8049375 31.701375)" r="90" cx="90" cy="90" fill="#ffffff" stroke-opacity="0" stroke="#000000" stroke-width="0" stroke-linecap="square" stroke-linejoin="bevel"/><g id="group0" transform="matrix(0.0568125 0 0 0.0568125 6.931125 6.931125)" fill="none">
  <circle id="shape6" transform="translate(247, 472)" r="60" cx="60" cy="60" fill="#414042" stroke-opacity="0" stroke="#000000" stroke-width="0" stroke-linecap="square" stroke-linejoin="bevel"/>
  <circle id="shape7" transform="translate(657.000000000001, 472)" r="60" cx="60" cy="60" fill="#414042" stroke-opacity="0" stroke="#000000" stroke-width="0" stroke-linecap="square" stroke-linejoin="bevel"/>
 </g>
</svg>
